<?xml version="1.0" standalone="no"?>
<!DOCTYPE svg PUBLIC "-//W3C//DTD SVG 20010904//EN"
 "http://www.w3.org/TR/2001/REC-SVG-20010904/DTD/svg10.dtd">
<svg version="1.0" xmlns="http://www.w3.org/2000/svg"
 width="512.000000pt" height="512.000000pt" viewBox="0 0 512.000000 512.000000"
 preserveAspectRatio="xMidYMid meet">
<metadata>
Created by potrace 1.14, written by Peter Selinger 2001-2017
</metadata>
<g transform="translate(0.000000,512.000000) scale(0.100000,-0.100000)"
fill="#000000" stroke="none">
<path d="M2417 5102 c-15 -17 -17 -65 -17 -480 l0 -462 -22 -4 c-13 -2 -66
-11 -118 -21 -334 -58 -674 -251 -903 -512 -190 -217 -326 -496 -372 -763 -10
-52 -19 -105 -21 -117 l-4 -23 -464 0 c-436 0 -464 -1 -479 -18 -14 -15 -17
-41 -17 -144 0 -108 2 -127 18 -141 17 -15 65 -17 480 -17 l462 0 4 -22 c2
-13 11 -66 21 -118 58 -334 247 -668 511 -901 215 -190 498 -329 764 -374 52
-9 105 -18 118 -21 l22 -4 0 -464 c0 -436 1 -464 18 -479 15 -14 41 -17 144
-17 108 0 127 2 141 18 15 17 17 65 17 480 l0 462 23 4 c12 3 65 12 117 21
331 56 674 251 903 512 190 217 327 498 372 763 9 52 18 105 21 118 l4 22 464
0 c436 0 464 1 479 18 14 15 17 41 17 144 0 108 -2 127 -18 141 -17 15 -65 17
-480 17 l-462 0 -4 23 c-3 12 -12 65 -21 117 -56 332 -251 674 -515 906 -211
185 -495 323 -760 369 -52 10 -105 19 -117 21 l-23 4 0 464 c0 436 -1 464 -18
479 -15 14 -41 17 -144 17 -108 0 -127 -2 -141 -18z m-17 -1574 c0 -257 2
-294 17 -310 14 -16 33 -18 141 -18 103 0 129 3 144 17 17 15 18 38 18 310 0
336 -12 304 107 279 349 -74 661 -304 844 -624 67 -116 129 -296 145 -414 l7
-48 -293 0 c-259 0 -296 -2 -312 -17 -16 -14 -18 -33 -18 -141 0 -103 3 -129
17 -144 15 -17 38 -18 311 -18 l295 0 -7 -48 c-23 -177 -116 -393 -239 -558
-108 -144 -285 -292 -446 -374 -75 -37 -220 -88 -304 -106 -119 -25 -107 -57
-107 278 0 257 -2 294 -17 310 -14 16 -33 18 -141 18 -103 0 -129 -3 -144 -17
-17 -15 -18 -38 -18 -311 l0 -295 -48 7 c-238 31 -502 168 -691 357 -189 189
-326 453 -357 691 l-7 48 293 0 c259 0 296 2 312 17 16 14 18 33 18 141 0 103
-3 129 -17 144 -15 17 -38 18 -310 18 -336 0 -304 -12 -279 107 68 322 269
613 551 798 44 29 103 64 130 78 103 51 304 113 378 116 l27 1 0 -292z"/>
<path d="M2502 2617 c-50 -53 -13 -137 59 -137 47 0 79 34 79 81 0 71 -90 107
-138 56z"/>
<path d="M337 4782 c-15 -17 -17 -64 -17 -464 0 -418 1 -446 18 -461 15 -14
41 -17 144 -17 108 0 127 2 141 18 15 16 17 51 17 279 0 159 4 272 11 291 7
20 21 34 41 41 19 7 132 11 293 11 241 0 263 1 278 18 14 15 17 41 17 144 0
108 -2 127 -18 141 -17 15 -64 17 -464 17 -418 0 -446 -1 -461 -18z"/>
<path d="M3857 4782 c-14 -15 -17 -41 -17 -144 0 -108 2 -127 18 -141 16 -15
51 -17 279 -17 159 0 272 -4 291 -11 20 -7 34 -21 41 -41 7 -19 11 -132 11
-293 0 -241 1 -263 18 -278 15 -14 41 -17 144 -17 108 0 127 2 141 18 15 17
17 64 17 464 0 418 -1 446 -18 461 -17 15 -64 17 -464 17 -418 0 -446 -1 -461
-18z"/>
<path d="M337 1262 c-15 -17 -17 -64 -17 -464 0 -418 1 -446 18 -461 17 -15
64 -17 464 -17 418 0 446 1 461 18 14 15 17 41 17 144 0 108 -2 127 -18 141
-16 15 -51 17 -279 17 -159 0 -272 4 -291 11 -20 7 -34 21 -41 41 -7 19 -11
132 -11 293 0 241 -1 263 -18 278 -15 14 -41 17 -144 17 -108 0 -127 -2 -141
-18z"/>
<path d="M4497 1262 c-15 -16 -17 -51 -17 -279 0 -159 -4 -272 -11 -291 -7
-20 -21 -34 -41 -41 -19 -7 -132 -11 -293 -11 -241 0 -263 -1 -278 -18 -14
-15 -17 -41 -17 -144 0 -108 2 -127 18 -141 17 -15 64 -17 464 -17 418 0 446
1 461 18 15 17 17 64 17 464 0 418 -1 446 -18 461 -15 14 -41 17 -144 17 -108
0 -127 -2 -141 -18z"/>
</g>
</svg>
